<?xml version="1.0" standalone="no"?><!DOCTYPE svg PUBLIC "-//W3C//DTD SVG 1.1//EN" "http://www.w3.org/Graphics/SVG/1.1/DTD/svg11.dtd"><svg t="1616039590306" class="icon" viewBox="0 0 1024 1024" version="1.1" xmlns="http://www.w3.org/2000/svg" p-id="36219" xmlns:xlink="http://www.w3.org/1999/xlink" width="200" height="200"><defs><style type="text/css"></style></defs><path d="M223.704615 175.655385l37.021539 31.507692-37.021539 31.507692v-63.015384z m704.196923 153.6l37.021539 31.507692-37.021539 31.507692v-63.015384zM170.929231 135.483077c-9.452308 0-17.329231-7.876923-17.329231-17.329231 0-9.452308 7.876923-17.329231 17.329231-17.329231 9.452308 0 17.329231 7.876923 17.329231 17.329231 0 9.452308-7.876923 17.329231-17.329231 17.329231zM976.738462 545.870769c17.329231 0 31.507692-14.178462 31.507692-31.507692s-14.178462-31.507692-31.507692-31.507692-31.507692 14.178462-31.507693 31.507692c-0.787692 17.329231 13.390769 31.507692 31.507693 31.507692z m0 15.753846c-25.993846 0-47.261538-21.267692-47.261539-47.261538s21.267692-47.261538 47.261539-47.261539 47.261538 21.267692 47.261538 47.261539-21.267692 47.261538-47.261538 47.261538zM64.590769 218.978462v-18.116924c0-3.938462 3.938462-7.876923 8.664616-7.876923 4.726154 0 8.664615 3.150769 8.664615 7.876923v18.116924h18.116923c4.726154 0 8.664615 3.938462 8.664615 8.664615 0 4.726154-3.938462 8.664615-8.664615 8.664615h-18.116923v19.692308c0 3.938462-3.938462 7.876923-8.664615 7.876923-4.726154 0-8.664615-3.150769-8.664616-7.876923V236.307692H47.261538c-4.726154 0-8.664615-3.938462-8.664615-8.664615 0-4.726154 3.938462-8.664615 8.664615-8.664615h17.329231z m793.206154 211.88923v-11.815384c0-3.150769 3.938462-5.513846 8.664615-5.513846 4.726154 0 8.664615 2.363077 8.664616 5.513846v11.815384h8.664615c4.726154 0 8.664615 3.938462 8.664616 8.664616 0 4.726154-3.938462 8.664615-8.664616 8.664615h-8.664615v11.815385c0 3.150769-3.938462 5.513846-8.664616 5.513846-4.726154 0-8.664615-2.363077-8.664615-5.513846v-11.815385h-8.664615c-4.726154 0-8.664615-3.938462-8.664616-8.664615 0-4.726154 3.938462-8.664615 8.664616-8.664616h8.664615z" fill="#CCD6E1" p-id="36220"></path><path d="M7.876923 337.132308c0-8.664615 7.089231-15.753846 15.753846-15.753846h211.101539c8.664615 0 15.753846 7.089231 15.753846 15.753846V354.461538c0 8.664615 7.089231 15.753846 15.753846 15.753847h281.206154c8.664615 0 15.753846 7.089231 15.753846 15.753846v509.636923c0 8.664615-7.089231 15.753846-15.753846 15.753846H126.030769c-65.378462 0-118.153846-52.775385-118.153846-118.153846V337.132308z" fill="#E2EAF3" p-id="36221"></path><path d="M0 341.070769c0-13.390769 10.24-23.630769 23.630769-23.630769h211.101539c13.390769 0 23.630769 10.24 23.630769 23.630769v17.329231c0 3.938462 3.938462 7.876923 7.876923 7.876923h281.206154c13.390769 0 23.630769 10.24 23.630769 23.630769v509.636923c0 13.390769-10.24 23.630769-23.630769 23.63077H126.030769c-69.316923 0-126.030769-56.713846-126.030769-126.03077V341.070769z m15.753846 0v456.073846c0 60.652308 49.624615 110.276923 110.276923 110.276923h420.627693c3.938462 0 7.876923-3.150769 7.876923-7.876923V389.12c0-4.726154-3.150769-7.876923-7.876923-7.876923H265.452308c-12.603077 0-23.630769-10.24-23.63077-23.630769v-17.329231c0-4.726154-3.150769-7.876923-7.876923-7.876923H23.630769c-4.726154 0.787692-7.876923 3.938462-7.876923 8.664615z" fill="#CCD6E1" p-id="36222"></path><path d="M426.929231 211.889231l374.941538 159.113846c6.301538 2.363077 9.452308 9.452308 7.089231 15.753846l-172.504615 426.141539-392.27077-165.415385 166.99077-428.504615c2.363077-7.089231 9.452308-9.452308 15.753846-7.089231z" fill="#E2EAF3" p-id="36223"></path><path d="M427.716923 199.286154l374.941539 159.113846c10.24 3.938462 14.966154 15.753846 11.027692 25.993846L638.030769 818.412308 231.581538 645.907692 401.723077 210.313846c3.938462-10.24 15.753846-14.966154 25.993846-11.027692z m371.003077 179.593846c0.787692-2.363077 0-4.726154-2.363077-5.513846L422.203077 214.252308c-2.363077-0.787692-4.726154 0-5.513846 2.363077L252.061538 638.030769l377.304616 159.901539 169.353846-419.052308z" fill="#CCD6E1" p-id="36224"></path><path d="M283.569231 691.593846l89.009231-464.738461 337.92 66.953846 65.378461 96.098461-73.255385 379.667693z" fill="#FFFFFF" p-id="36225"></path><path d="M404.086154 489.156923c-3.938462-0.787692-7.089231-4.726154-6.301539-9.452308 0.787692-3.938462 4.726154-7.089231 9.452308-6.301538l274.116923 57.501538c3.938462 0.787692 7.089231 4.726154 6.301539 9.452308-0.787692 3.938462-4.726154 7.089231-9.452308 6.301539l-274.116923-57.501539z m11.815384-85.858461c-3.938462-0.787692-7.089231-4.726154-6.301538-9.452308 0.787692-3.938462 4.726154-7.089231 9.452308-6.301539L693.169231 445.833846c3.938462 0.787692 7.089231 4.726154 6.301538 9.452308-0.787692 3.938462-4.726154 7.089231-9.452307 6.301538l-274.116924-58.28923z m304.836924-110.276924l60.652307 89.009231c1.575385 1.575385 1.575385 3.938462 1.575385 6.301539L708.923077 768c-0.787692 3.938462-4.726154 7.089231-9.452308 6.301538l-419.052307-78.76923c-3.938462-0.787692-7.089231-4.726154-6.301539-9.452308l89.009231-464.738462c0.787692-3.938462 4.726154-7.089231 9.452308-6.301538l337.92 67.741538c2.363077 0.787692 3.938462 1.575385 4.726153 3.15077l5.513847 7.08923z m44.110769 92.16l-48.836923-71.68-11.815385 46.473847c-0.787692 3.938462 1.575385 8.664615 5.513846 9.452307l55.138462 15.753846z m-0.787693 15.753847l-59.076923-15.753847c-12.603077-3.150769-19.692308-16.541538-16.541538-29.144615l14.966154-59.076923L378.092308 232.369231l-85.858462 448.984615 403.298462 75.618462L764.061538 400.935385z" fill="#CCD6E1" p-id="36226"></path><path d="M118.153846 913.723077s28.356923 7.089231 40.172308-61.44c-2.363077 1.575385 0-294.596923 0-294.596923h704.196923v246.547692s0 109.489231-118.941539 110.276923c-1.575385-0.787692-625.427692-0.787692-625.427692-0.787692z" fill="#F5F8F9" p-id="36227"></path><path d="M149.661538 850.707692v-9.452307-33.87077-101.612307-70.892308-55.138462-15.753846-5.513846c0-3.938462 3.938462-7.876923 7.876924-7.876923h704.196923c4.726154 0 7.876923 3.150769 7.876923 7.876923v246.547692c0 3.938462-0.787692 10.24-2.363077 18.904616-2.363077 13.390769-7.089231 27.569231-14.178462 40.172308-19.692308 37.021538-55.926154 59.076923-111.064615 59.076923h-0.787692H115.790769l1.575385-15.753847c0.787692 0 2.363077 0 3.938461-0.787692 3.150769-1.575385 6.301538-3.938462 10.24-8.664615 6.301538-8.664615 11.815385-23.630769 15.753847-44.110769 2.363077-0.787692 2.363077-1.575385 2.363076-3.15077z m-3.150769 56.713846c-9.452308 12.603077-20.48 16.541538-29.144615 15.753847h-1.575385c-8.664615-2.363077-7.089231-15.753846 1.575385-15.753847h29.144615z m14.178462-60.652307c-1.575385 0-3.150769 0-7.876923 0.787692 2.363077-1.575385 3.938462-1.575385 6.301538-0.787692h1.575385z m4.726154 5.513846s0-0.787692 0 0c0-0.787692 0-0.787692-0.787693-2.363077-1.575385-1.575385-1.575385-2.363077-3.150769-3.150769 0.787692 0 3.150769 1.575385 3.938462 5.513846 0-0.787692 0-0.787692 0 0z m-1.575385 55.138461h579.741538c48.836923 0 79.556923-18.904615 96.886154-51.2 6.301538-11.027692 10.24-23.630769 12.603077-35.446153 0.787692-3.938462 1.575385-7.876923 1.575385-11.815385V566.350769H165.415385V854.646154c-3.938462 23.630769-10.24 40.96-18.904616 52.775384h17.329231z" fill="#CCD6E1" p-id="36228"></path><path d="M166.203077 695.532308H228.430769c0.787692 0 2.363077 0 3.150769 0.787692 29.144615 3.938462 44.110769 19.692308 44.11077 42.535385 0.787692 27.569231-20.48 46.473846-45.686154 47.261538H116.578462c-37.809231-1.575385-62.227692-26.781538-63.015385-54.350769v-11.815385c-0.787692-30.72 22.843077-53.563077 63.015385-55.926154l40.172307 0.787693c4.726154 0 7.876923 3.938462 7.876923 7.876923 0 4.726154-3.938462 7.876923-7.876923 7.876923l-39.384615-0.787692c-31.507692 1.575385-48.049231 18.116923-48.049231 39.384615v11.815385c0 19.692308 18.116923 37.809231 47.261539 38.596923h113.427692c17.329231 0 30.72-12.603077 29.932308-30.72 0-15.753846-10.24-25.993846-33.87077-27.569231H146.510769c-11.815385 0-20.48 7.089231-20.48 14.178461s8.664615 14.178462 20.48 14.178462h48.049231c4.726154 0 7.876923 3.150769 7.876923 7.876923s-3.150769 7.876923-7.876923 7.876923h-48.049231c-19.692308 0-36.233846-12.603077-36.233846-29.932308 0-17.329231 16.541538-29.932308 36.233846-29.932307h19.692308z" fill="#CCD6E1" p-id="36229"></path></svg>