<svg t="1603450519098" class="icon" viewBox="0 0 2048 1024" version="1.1" xmlns="http://www.w3.org/2000/svg" p-id="22764" width="364" height="364"><path d="M147.456 968.687616h169.90208l-4.358144-830.58688L147.456 968.679424z" fill="#E1EAFF" p-id="22765"></path><path d="M410.886144 878.116864h136.35584a20.93056 20.93056 0 0 0 20.93056-20.93056V304.9472a20.93056 20.93056 0 0 0-20.93056-20.93056H410.886144a20.93056 20.93056 0 0 0-20.93056 20.93056v552.239104a20.93056 20.93056 0 0 0 20.93056 20.93056M660.389888 878.116864h605.323264a19.628032 19.628032 0 0 0 19.61984-19.628032v-554.84416a19.61984 19.61984 0 0 0-19.61984-19.628032H660.389888a19.628032 19.628032 0 0 0-19.628032 19.628032v554.84416a19.628032 19.628032 0 0 0 19.628032 19.628032" fill="#BACEFD" p-id="22766"></path><path d="M477.42976 76.275712a27.131904 27.131904 0 1 0 54.263808 0 27.131904 27.131904 0 0 0-54.255616 0" fill="#F54A45" p-id="22767"></path><path d="M393.076736 76.275712a27.123712 27.123712 0 1 0 54.255616 0.008192 27.123712 27.123712 0 0 0-54.255616-0.008192" fill="#FFC400" p-id="22768"></path><path d="M308.723712 76.275712a27.131904 27.131904 0 1 0 54.255616 0 27.131904 27.131904 0 0 0-54.255616 0" fill="#34C724" p-id="22769"></path><path d="M312.999936 211.88608h1055.244288v-51.920896a21.87264 21.87264 0 0 0-21.864448-21.87264H334.864384a21.87264 21.87264 0 0 0-21.87264 21.87264v51.920896z" fill="#82A7FC" p-id="22770"></path><path d="M1627.01312 289.660928s-13.88544 61.308928-40.46848 93.88032c-26.591232 32.571392 20.23424 78.544896 20.23424 78.544896s-5.627904 42.14784-71.729152 39.28064c-66.093056-2.875392-75.677696-51.73248-75.677696-51.73248s70.688768-31.62112 49.23392-47.890432c-21.454848-16.285696-34.381824-35.446784-23.371776-103.46496 11.01824-68.009984 59.875328-73.752576 101.310464-64.176128 41.426944 9.576448 40.46848 55.558144 40.46848 55.558144z" fill="#805000" p-id="22771"></path><path d="M1758.45376 538.656768c25.444352 49.9712 108.634112 173.42464 86.605824 206.954496-22.03648 33.521664-178.077696 148.48-178.077696 148.48l14.630912-145.580032 38.313984-30.654464-22.60992-65.69984 15.908864-157.499392s30.154752 14.385152 45.228032 43.99104" fill="#795101" p-id="22772"></path><path d="M1627.004928 289.66912s31.29344 12.45184 19.800064 39.264256c-11.501568 26.8288-38.060032 15.998976-38.060032 15.998976l18.259968-55.271424z" fill="#805000" p-id="22773"></path><path d="M1666.981888 253.70624c-0.155648 2.8672-23.06048 113.803264-113.41824 91.267072-90.35776-22.544384-84.795392-209.379328 32.710656-182.632448 37.085184 8.43776 84.385792 22.528 80.707584 91.357184" fill="#1E232A" p-id="22774"></path><path d="M1523.54816 290.627584s68.968448 28.737536 49.815552 45.981696c-19.161088 17.24416-59.392-24.90368-124.534784 0l-176.259072 80.470016 138.412032 18.137088-52.379648 145.178624s-329.342976-100.098048-268.034048-170.983424c61.300736-70.885376 457.498624-260.01408 469.385216-241.688576 11.395072 17.580032-58.130432 72.237056-63.709184 62.554112-9.09312-15.802368 91.488256-61.333504 98.189312-43.106304 7.995392 21.725184-75.292672 81.96096-83.320832 68.091904-8.634368-14.925824 83.320832-48.939008 92.905472-29.77792 9.576448 19.16928-80.470016 65.142784-80.470016 65.142784" fill="#805000" p-id="22775"></path><path d="M1130.225664 381.25568c-16.662528 11.8784-29.229056 22.36416-36.560896 30.834688-6.742016 7.806976-7.962624 15.622144-5.292032 23.740416 2.793472 8.47872 9.977856 17.6128 20.897792 27.11552 21.782528 18.939904 56.737792 37.896192 94.019584 54.80448 37.183488 16.87552 76.30848 31.563776 106.16832 42.033152a1595.277312 1595.277312 0 0 0 46.620672 15.540224l49.324032-136.708096-133.36576-17.473536a4.096 4.096 0 0 1-1.171456-7.7824l176.259072-80.478208a4.42368 4.42368 0 0 1 0.24576-0.098304c33.693696-12.886016 61.005824-8.380416 81.985536-3.014656 3.506176 0.90112 6.750208 1.794048 9.797632 2.629632 6.234112 1.72032 11.59168 3.19488 16.441344 3.93216 7.036928 1.06496 11.599872 0.32768 15.03232-2.760704 1.654784-1.499136 2.023424-2.74432 1.998848-3.801088-0.024576-1.253376-0.630784-2.973696-2.260992-5.185536-3.293184-4.46464-9.551872-9.33888-16.908288-13.959168a220.086272 220.086272 0 0 0-21.209088-11.55072 282.33728 282.33728 0 0 0-7.430144-3.432448l-2.113536-0.917504-0.548864-0.24576-0.139264-0.049152-0.032768-0.016384h-0.008192a4.104192 4.104192 0 0 1-0.28672-7.430144l0.057344-0.032768 0.188416-0.090112 0.73728-0.385024 2.809856-1.47456a542.96576 542.96576 0 0 0 9.99424-5.431296 505.962496 505.962496 0 0 0 29.663232-17.760256c10.592256-6.897664 20.676608-14.262272 27.467776-20.97152 3.416064-3.375104 5.783552-6.373376 7.036928-8.880128 1.261568-2.506752 1.097728-3.866624 0.712704-4.636672-0.45056-0.90112-1.613824-1.96608-4.448256-2.70336-2.809856-0.712704-6.660096-0.925696-11.362304-0.57344-2.58048 0.188416-5.332992 0.540672-8.216576 1.032192-4.702208 4.399104-9.8304 8.716288-15.048704 12.73856-10.56768 8.134656-21.74976 15.23712-30.932992 19.439616-4.54656 2.08896-8.880128 3.588096-12.53376 4.022272-3.39968 0.4096-7.938048 0.032768-10.248192-3.956736-2.277376-3.948544-0.73728-7.962624 1.368064-10.829824 2.12992-2.899968 5.521408-5.69344 9.445376-8.290304 7.94624-5.24288 19.267584-10.428416 31.014912-14.475264a170.450944 170.450944 0 0 1 23.068672-6.275072c3.883008-3.743744 7.3728-7.487488 10.256384-11.083776 3.2768-4.079616 5.65248-7.82336 6.971392-11.026432 1.35168-3.260416 1.39264-5.423104 0.90112-6.750208-0.049152-0.139264-0.4096-0.991232-3.23584-1.39264-2.727936-0.376832-6.660096-0.12288-11.599872 0.8192-6.119424 1.171456-13.312 3.301376-20.840448 6.06208-4.95616 6.18496-11.239424 12.500992-17.743872 18.2272-8.47872 7.45472-17.563648 14.114816-24.993792 18.317312-3.678208 2.08896-7.184384 3.710976-10.133504 4.448256a11.927552 11.927552 0 0 1-4.66944 0.344064 6.38976 6.38976 0 0 1-4.677632-3.088384c-2.359296-4.104192-0.647168-8.413184 1.51552-11.526144 2.260992-3.244032 5.873664-6.5536 10.133504-9.756672 8.585216-6.455296 20.815872-13.205504 33.398784-18.817024 4.01408-1.794048 8.101888-3.4816 12.140544-5.013504 0.827392-1.089536 1.59744-2.162688 2.310144-3.219456 2.367488-3.530752 3.899392-6.63552 4.554752-9.166848 0.516096-1.96608 0.434176-3.301376 0.098304-4.210688a14.655488 14.655488 0 0 0-2.998272 0.098304c-3.211264 0.352256-7.831552 1.39264-13.811712 3.15392-11.886592 3.497984-28.42624 9.592832-48.267264 17.711104-39.657472 16.211968-92.110848 40.30464-146.153472 67.198976-54.042624 26.894336-109.584384 56.56576-155.418624 83.910656-22.921216 13.672448-43.368448 26.738688-59.973632 38.576128z m432.08704-198.295552c1.040384-2.048 1.851392-4.096 2.367488-6.070272 0.991232-3.792896 0.98304-7.880704-1.286144-11.38688-1.318912-2.039808-3.506176-2.70336-5.005312-2.94912a20.6848 20.6848 0 0 0-5.439488 0.016384c-3.93216 0.434176-9.101312 1.6384-15.220736 3.44064-12.288 3.612672-29.130752 9.8304-49.061888 17.98144-39.89504 16.310272-92.545024 40.493056-146.702336 67.452928-54.157312 26.95168-109.89568 56.721408-155.959296 84.205568-23.035904 13.737984-43.687936 26.935296-60.530688 38.936576-16.785408 11.96032-30.007296 22.904832-38.002688 32.145408-8.577024 9.920512-10.477568 20.733952-6.88128 31.66208 3.4816 10.559488 11.976704 20.873216 23.30624 30.728192 22.7328 19.767296 58.61376 39.124992 96.002048 56.090624 37.494784 17.014784 76.865536 31.78496 106.848256 42.303488a1598.922752 1598.922752 0 0 0 46.948352 15.64672l2.760704 0.86016 0.712704 0.212992 0.229376 0.073728h0.008192l1.196032-3.915776-1.196032 3.915776a4.096 4.096 0 0 0 5.046272-2.523136l52.379648-145.178624a4.071424 4.071424 0 0 0-3.31776-5.455872l-124.248064-16.277504 163.14368-74.481664c31.391744-11.968512 56.7296-7.856128 76.914688-2.686976 3.072 0.786432 6.10304 1.613824 9.043968 2.424832 6.529024 1.80224 12.65664 3.489792 17.997824 4.3008 7.929856 1.204224 15.589376 0.761856 21.741568-4.775936 3.121152-2.818048 4.79232-6.242304 4.7104-10.059776-0.08192-3.620864-1.72032-6.9632-3.858432-9.879552-4.25984-5.767168-11.649024-11.313152-19.136512-16.031744a229.105664 229.105664 0 0 0-24.928256-13.361152c1.908736-1.032192 4.120576-2.244608 6.561792-3.60448a514.015232 514.015232 0 0 0 30.154752-18.046976c10.715136-6.979584 21.356544-14.70464 28.75392-22.011904 3.678208-3.629056 6.774784-7.3728 8.609792-11.042816 1.835008-3.670016 2.719744-7.94624 0.704512-11.96032-1.941504-3.899392-5.750784-5.947392-9.740288-6.971392-3.620864-0.925696-7.90528-1.14688-12.468224-0.909312 1.286144-1.441792 2.506752-2.8672 3.637248-4.284416 3.538944-4.407296 6.422528-8.830976 8.159232-13.02528 1.703936-4.128768 2.523136-8.6016 1.007616-12.705792m-61.743104 16.031744c-10.551296 4.980736-20.324352 10.575872-27.262976 15.794176-3.997696 3.006464-6.79936 5.701632-8.331264 7.888896-0.466944 0.679936-0.761856 1.2288-0.933888 1.654784a0.598016 0.598016 0 0 1 0.057344-0.016384c1.875968-0.466944 4.62848-1.662976 8.077312-3.620864 6.815744-3.858432 15.44192-10.149888 23.617536-17.342464 1.630208-1.425408 3.219456-2.883584 4.775936-4.358144z m22.396928 27.451392c-2.285568 0.688128-4.579328 1.4336-6.856704 2.220032-11.362304 3.923968-22.003712 8.839168-29.179904 13.574144-3.629056 2.392064-6.078464 4.554752-7.356416 6.30784a4.571136 4.571136 0 0 0-0.884736 1.67936l-0.008192 0.08192c0.24576 0.08192 0.868352 0.196608 2.195456 0.032768 2.408448-0.28672 5.840896-1.384448 10.100736-3.334144 8.43776-3.866624 19.08736-10.584064 29.343744-18.481152 0.884736-0.688128 1.769472-1.376256 2.646016-2.080768z m-44.433408 23.781376s0.016384 0 0.049152 0.032768c-0.04096-0.016384-0.057344-0.032768-0.049152-0.032768z m0.155648 0.180224l-0.008192-0.024576z" fill="#5C3A00" p-id="22776"></path><path d="M1904.074752 210.558976a4.096 4.096 0 0 1-3.93216 4.25984l-73.678848 2.899968a4.096 4.096 0 1 1-0.319488-8.183808l73.678848-2.90816a4.096 4.096 0 0 1 4.251648 3.93216zM1850.32704 102.883328a4.096 4.096 0 0 1 0.155648 5.791744l-50.028544 52.781056a4.096 4.096 0 0 1-5.947392-5.636096l50.028544-52.781056a4.096 4.096 0 0 1 5.791744-0.155648zM1856.454656 175.112192a4.096 4.096 0 0 1-3.072 4.9152l-39.657472 9.13408a4.096 4.096 0 0 1-1.8432-7.9872l39.657472-9.13408a4.096 4.096 0 0 1 4.9152 3.072z" fill="#3370FF" p-id="22777"></path><path d="M1751.851008 166.46144a71.548928 71.548928 0 0 1-71.548928 71.55712 71.55712 71.55712 0 1 1 71.548928-71.548928" fill="#1E232A" p-id="22778"></path><path d="M1258.668032 856.449024l-34.48832 114.950144h442.810368l7.970816-114.950144h-416.292864z" fill="#795101" p-id="22779"></path><path d="M1410.981888 435.216384s26.70592 3.170304 62.0544 7.692288c21.54496 2.768896 22.110208 31.277056 62.472192 38.043648 52.043776 8.72448 53.4528-21.962752 71.262208-18.857984 65.978368 11.501568 106.45504 32.571392 106.45504 32.571392l-15.908864 157.499392-22.355968 204.292096h-416.292864l152.313856-421.240832z" fill="#FFC400" p-id="22780"></path><path d="M1502.224384 660.955136c-2.359296 15.450112 7.471104 30.285824 22.790144 33.75104 16.031744 3.637248 32.006144-6.5536 35.67616-22.749184 3.670016-16.203776-6.3488-32.284672-22.380544-35.92192a29.597696 29.597696 0 0 0-23.625728 4.718592l6.987776-30.834688a55.181312 55.181312 0 0 1 22.462464 0.4096c30.081024 6.823936 48.881664 36.98688 41.992192 67.387392-6.889472 30.39232-36.855808 49.512448-66.936832 42.696704-29.24544-6.63552-47.833088-35.332096-42.508288-64.856064l-0.057344-0.016384 16.564224-73.097216 27.295744-2.056192-18.259968 80.56832z m-31.768576 21.848064s4.292608 19.161088 19.857408 30.703616l-3.64544 16.113664-27.295744 2.080768 11.083776-48.90624z" fill="#FEF9EC" p-id="22781"></path><path d="M1078.861824 971.40736a4.096 4.096 0 0 1 4.096-4.096h674.89792a4.096 4.096 0 1 1 0 8.192h-674.89792a4.096 4.096 0 0 1-4.096-4.096z" fill="#3370FF" p-id="22782"></path><path d="M431.169536 366.002176a4.096 4.096 0 0 1 4.096-4.096h84.344832a4.096 4.096 0 0 1 0 8.192H435.257344a4.096 4.096 0 0 1-4.096-4.096zM431.169536 400.605184a4.096 4.096 0 0 1 4.096-4.096h84.344832a4.096 4.096 0 0 1 0 8.192H435.257344a4.096 4.096 0 0 1-4.096-4.096zM431.169536 435.2a4.096 4.096 0 0 1 4.096-4.096h84.344832a4.096 4.096 0 0 1 0 8.192H435.257344a4.096 4.096 0 0 1-4.096-4.096z" fill="#FFFFFF" p-id="22783"></path></svg>