<?xml version="1.0" standalone="no"?><!DOCTYPE svg PUBLIC "-//W3C//DTD SVG 1.1//EN" "http://www.w3.org/Graphics/SVG/1.1/DTD/svg11.dtd"><svg t="1606492339379" class="icon" viewBox="0 0 2048 1024" version="1.1" xmlns="http://www.w3.org/2000/svg" p-id="6033" xmlns:xlink="http://www.w3.org/1999/xlink" width="394" height="394"><defs><style type="text/css"></style></defs><path d="M1025.6384 975.6672h326.8608l-326.8608-421.0688z" fill="#E1EAFF" p-id="6034"></path><path d="M384.2048 938.8032c-2.4576 0-4.096-1.6384-4.096-4.096v-99.9424c0-2.4576 1.6384-4.096 4.096-4.096h153.1904c2.4576 0 4.096 1.6384 4.096 4.096s-1.6384 4.096-4.096 4.096H388.3008V933.888c0 2.4576-1.6384 4.9152-4.096 4.9152zM1026.4576 979.034112H384.2048c-2.4576 0-4.096-1.6384-4.096-4.096s1.6384-4.096 4.096-4.096h638.1568v-131.8912h-393.216c-2.4576 0-4.096-1.6384-4.096-4.096s1.6384-4.096 4.096-4.096h397.312c2.4576 0 4.096 1.6384 4.096 4.096v140.0832c0 2.4576-1.6384 4.096-4.096 4.096z" fill="#3370FF" p-id="6035"></path><path d="M968.2944 905.306112c0 16.384-13.1072 30.3104-30.3104 30.3104-16.384 0-30.3104-13.1072-30.3104-30.3104s13.1072-30.3104 30.3104-30.3104 30.3104 13.1072 30.3104 30.3104" fill="#BACEFD" p-id="6036"></path><path d="M1026.4576 838.950912c-2.4576 0-4.096-1.6384-4.096-4.096v-145.8176H388.3008v145.8176c0 2.4576-1.6384 4.096-4.096 4.096s-4.096-1.6384-4.096-4.096v-149.9136c0-2.4576 1.6384-4.096 4.096-4.096h642.2528c2.4576 0 4.096 1.6384 4.096 4.096v149.9136c0 2.4576-1.6384 4.096-4.096 4.096z" fill="#126DFF" p-id="6037"></path><path d="M968.2944 754.573312c0 16.384-13.1072 30.3104-30.3104 30.3104-16.384 0-30.3104-13.1072-30.3104-30.3104 0-16.384 13.1072-30.3104 30.3104-30.3104 17.2032 0.8192 30.3104 13.9264 30.3104 30.3104" fill="#BACEFD" p-id="6038"></path><path d="M1026.4576 689.037312h-638.976c-4.096 0-7.3728-3.2768-7.3728-7.3728v-109.7728c0-22.9376 18.8416-41.7792 41.7792-41.7792h567.7056c22.9376 0 41.7792 18.8416 41.7792 41.7792v113.0496c-0.8192 2.4576-2.4576 4.096-4.9152 4.096z m-638.1568-8.192h633.2416v-108.9536c0-18.0224-14.7456-32.768-32.768-32.768H421.888c-18.0224 0-32.768 14.7456-32.768 32.768v108.9536z" fill="#3370FF" p-id="6039"></path><path d="M968.2944 607.936512c0 16.384-13.1072 30.3104-30.3104 30.3104-16.384 0-30.3104-13.1072-30.3104-30.3104s13.1072-30.3104 30.3104-30.3104 30.3104 13.1072 30.3104 30.3104" fill="#F54A45" p-id="6040"></path><path d="M810.1888 636.608512H481.6896c-15.5648 0-28.672-13.1072-28.672-28.672v-0.8192c0-15.5648 13.1072-28.672 28.672-28.672H811.008c15.5648 0 28.672 13.1072 28.672 28.672v0.8192c-0.8192 15.5648-13.1072 28.672-29.4912 28.672M810.1888 784.064512H481.6896c-15.5648 0-28.672-13.1072-28.672-28.672v-0.8192c0-15.5648 13.1072-28.672 28.672-28.672H811.008c15.5648 0 28.672 13.1072 28.672 28.672v0.8192c-0.8192 15.5648-13.1072 28.672-29.4912 28.672M810.1888 933.978112H481.6896c-15.5648 0-28.672-13.1072-28.672-28.672v-0.8192c0-15.5648 13.1072-28.672 28.672-28.672H811.008c15.5648 0 28.672 13.1072 28.672 28.672v0.8192c-0.8192 16.384-13.1072 28.672-29.4912 28.672" fill="#BACEFD" p-id="6041"></path><path d="M1070.6944 291.725312s-6.5536 36.864 21.2992 59.8016c49.152 40.1408 150.7328 294.0928 226.9184 343.2448s144.9984-43.4176 144.9984-43.4176l-62.2592-135.9872-41.7792 27.0336-120.4224-200.704s43.4176-57.344 27.0336-104.8576c-33.5872-97.4848-52.4288-79.4624-56.5248-24.576 0 0-13.1072-52.4288-59.8016-22.1184" fill="#FEEAD2" p-id="6042"></path><path d="M1365.6064 713.613312c-17.2032 0-33.5872-4.9152-49.152-14.7456-45.056-28.672-96.6656-125.3376-143.36-209.7152-32.768-59.8016-63.8976-117.1456-83.5584-133.5296-29.4912-24.576-23.7568-62.2592-22.9376-63.8976 0-2.4576 2.4576-4.096 4.9152-3.2768 2.4576 0 4.096 2.4576 3.2768 4.9152 0 0-5.7344 35.2256 20.48 56.5248 21.2992 18.0224 51.6096 72.9088 86.016 135.9872 45.8752 83.5584 97.4848 179.4048 140.0832 206.4384 66.3552 42.5984 127.7952-27.8528 137.6256-40.1408l-59.8016-129.4336-37.6832 22.9376c-0.8192 0.8192-1.6384 0.8192-3.2768 0.8192-0.8192 0-1.6384-0.8192-2.4576-1.6384l-120.4224-200.704c-0.8192-1.6384-0.8192-3.2768 0-4.9152 0.8192-0.8192 41.7792-55.7056 27.0336-100.7616-22.1184-64.7168-34.4064-67.1744-36.0448-66.3552-3.2768 0.8192-9.8304 9.8304-12.288 40.96 0 1.6384-1.6384 3.2768-4.096 4.096-1.6384 0-4.096-0.8192-4.096-3.2768 0 0-5.7344-20.48-20.48-27.0336-9.0112-3.2768-20.48-0.8192-33.5872 7.3728-1.6384 1.6384-4.096 0.8192-5.7344-0.8192-1.6384-1.6384-0.8192-4.096 0.8192-5.7344 15.5648-9.8304 28.672-12.288 40.96-8.192 9.0112 3.2768 14.7456 10.6496 18.8416 17.2032 3.2768-20.48 9.0112-31.1296 18.0224-32.768 8.192-0.8192 22.1184 4.9152 45.056 72.0896 14.7456 44.2368-18.0224 95.0272-26.2144 106.496l116.3264 194.9696 38.5024-24.576c0.8192-0.8192 2.4576-0.8192 3.2768-0.8192 0.8192 0 2.4576 0.8192 2.4576 2.4576l62.2592 135.9872c0.8192 1.6384 0.8192 3.2768-0.8192 4.096-0.8192 0.8192-18.0224 23.7568-45.056 40.96-17.2032 12.288-36.0448 18.0224-54.8864 18.0224z" fill="#126DFF" p-id="6043"></path><path d="M1576.1408 381.837312l-190.0544 113.8688 68.8128 149.0944 147.456-216.2688z" fill="#126DFF" p-id="6044"></path><path d="M1454.8992 648.896512c-1.6384 0-3.2768-0.8192-4.096-2.4576l-68.8128-149.0944c-0.8192-1.6384 0-4.096 1.6384-4.9152l189.2352-113.8688c0.8192-0.8192 2.4576-0.8192 3.2768-0.8192 0.8192 0 1.6384 0.8192 2.4576 1.6384l27.0336 46.6944c0.8192 1.6384 0.8192 3.2768 0 4.096l-147.456 216.2688c-0.8192 1.6384-1.6384 2.4576-3.2768 2.4576z m-63.0784-151.552l63.8976 139.264 141.7216-208.0768-23.7568-40.96-181.8624 109.7728z" fill="#FFFFFF" p-id="6045"></path><path d="M1554.8416 332.685312c-40.1408 13.9264-56.5248-44.2368-56.5248-44.2368l-22.9376 13.9264-12.288-106.496s-9.0112-40.96 45.056-56.5248c53.248-15.5648 60.6208 35.2256 60.6208 35.2256l8.192 31.9488s29.4912-39.3216 44.2368-11.4688c13.1072 26.2144-15.5648 50.7904-15.5648 50.7904s13.1072 87.6544 71.2704 119.6032c0 0-135.168 39.3216-110.592 25.3952 18.0224-10.6496 4.9152-65.536 4.9152-65.536l-16.384 7.3728z" fill="#FFEACF" p-id="6046"></path><path d="M1565.4912 397.402112c-4.9152 0-4.9152-1.6384-5.7344-2.4576-1.6384-4.096 2.4576-6.5536 4.9152-8.192 10.6496-6.5536 8.192-36.0448 4.096-55.7056l-12.288 5.7344h-0.8192c-10.6496 3.2768-20.48 3.2768-29.4912-1.6384-17.2032-9.0112-27.0336-30.3104-30.3104-40.1408l-18.8416 11.4688c-0.8192 0.8192-2.4576 0.8192-4.096 0s-2.4576-1.6384-2.4576-3.2768l-12.288-106.496s-9.0112-45.056 47.5136-61.44c17.2032-4.9152 31.9488-4.096 44.2368 3.2768 18.0224 11.4688 22.1184 34.4064 22.1184 35.2256l6.5536 23.7568c6.5536-7.3728 18.8416-18.0224 30.3104-17.2032 6.5536 0.8192 11.4688 4.9152 15.5648 12.288 12.288 24.576-8.192 48.3328-14.7456 54.0672 2.4576 13.1072 18.0224 86.8352 68.8128 114.688 1.6384 0.8192 2.4576 2.4576 2.4576 4.096s-1.6384 3.2768-3.2768 3.2768c-76.1856 22.9376-102.4 28.672-112.2304 28.672z m6.5536-76.1856h1.6384l2.4576 2.4576c1.6384 4.9152 10.6496 46.6944-1.6384 63.8976 17.2032-3.2768 56.5248-13.9264 92.5696-24.576-53.248-35.2256-64.7168-113.8688-65.536-117.1456 0-1.6384 0-2.4576 1.6384-3.2768 0 0 25.3952-22.9376 14.7456-45.8752-2.4576-4.9152-5.7344-7.3728-9.0112-8.192-9.8304-0.8192-23.7568 14.7456-27.8528 19.6608-0.8192 1.6384-2.4576 1.6384-4.096 1.6384s-2.4576-1.6384-3.2768-3.2768l-8.192-31.9488c0-0.8192-3.2768-20.48-18.8416-30.3104-9.8304-5.7344-22.1184-6.5536-36.864-2.4576-49.152 14.7456-42.5984 50.7904-41.7792 52.4288l11.4688 100.7616 17.2032-10.6496c0.8192-0.8192 2.4576-0.8192 3.2768 0 0.8192 0.8192 2.4576 1.6384 2.4576 2.4576 0 0 9.0112 30.3104 27.8528 40.1408 7.3728 4.096 14.7456 4.096 22.9376 1.6384l16.384-8.192c0.8192 0.8192 1.6384 0.8192 2.4576 0.8192z m-17.2032 11.4688zM333.4144 526.835712c-0.8192 0-1.6384 0-1.6384-0.8192l-67.1744-35.2256c-1.6384-0.8192-2.4576-3.2768-1.6384-5.7344 0.8192-1.6384 3.2768-2.4576 5.7344-1.6384l67.1744 35.2256c1.6384 0.8192 2.4576 3.2768 1.6384 5.7344-0.8192 1.6384-2.4576 2.4576-4.096 2.4576zM384.2048 487.514112c-1.6384 0-3.2768-0.8192-4.096-2.4576l-23.7568-71.2704c-0.8192-2.4576 0.8192-4.096 2.4576-4.9152 2.4576-0.8192 4.096 0.8192 4.9152 2.4576l23.7568 71.2704c0.8192 2.4576-0.8192 4.096-2.4576 4.9152h-0.8192zM358.8096 505.536512c-0.8192 0-1.6384 0-2.4576-0.8192l-32.768-26.2144c-1.6384-1.6384-2.4576-4.096-0.8192-5.7344 1.6384-1.6384 4.096-2.4576 5.7344-0.8192l32.768 26.2144c1.6384 1.6384 2.4576 4.096 0.8192 5.7344-0.8192 1.6384-2.4576 1.6384-3.2768 1.6384z" fill="#3370FF" p-id="6047"></path><path d="M1690.0096 975.757312h-331.776s176.9472-711.8848 319.488-609.4848c72.9088 52.4288 71.2704 158.9248 42.5984 374.3744" fill="#3370FF" p-id="6048"></path><path d="M1793.2288 979.853312H332.5952C330.9568 979.853312 328.4992 978.214912 328.4992 975.757312S330.9568 971.661312 332.5952 971.661312h1460.6336c2.4576 0 4.096 1.6384 4.096 4.096s-1.6384 4.096-4.096 4.096z" fill="#3370FF" p-id="6049"></path><path d="M1395.0976 686.579712s-429.2608-84.3776-431.7184-60.6208c-0.8192 9.8304 18.0224 31.1296 18.0224 36.0448 0 7.3728-22.9376 0-22.9376 13.9264 0 26.2144 32.768 22.9376 32.768 33.5872 0 11.4688-23.7568 0.8192-33.5872 23.7568-12.288 27.8528 428.4416 137.6256 508.7232 92.5696 59.8016-32.768 110.592-147.456 110.592-147.456-27.8528-27.8528-122.0608-95.0272-122.0608-95.0272l-59.8016 103.2192z" fill="#FEEAD2" p-id="6050"></path><path d="M1400.832 840.589312c-137.6256 0-404.6848-67.9936-441.5488-97.4848-4.9152-4.096-6.5536-7.3728-5.7344-10.6496 3.2768-12.288 14.7456-19.6608 28.672-22.9376-16.384-11.4688-28.672-23.7568-27.8528-33.5872 0-3.2768 1.6384-8.192 8.192-11.4688 3.2768-1.6384 6.5536-2.4576 10.6496-3.2768-9.0112-9.8304-15.5648-22.1184-14.7456-35.2256 0-1.6384 0.8192-3.2768 2.4576-4.9152 23.7568-17.2032 356.352 46.6944 430.8992 61.44l58.1632-100.7616c0.8192-0.8192 1.6384-1.6384 2.4576-1.6384 0.8192 0 2.4576 0 3.2768 0.8192 4.096 2.4576 95.8464 67.9936 122.88 95.0272 0.8192 0.8192 1.6384 3.2768 0.8192 4.9152-2.4576 4.9152-52.4288 116.3264-112.2304 149.0944-12.288 7.3728-36.0448 10.6496-66.3552 10.6496z m-439.0912-106.496s2.4576 4.9152 27.0336 14.7456c95.0272 39.3216 410.4192 109.7728 475.9552 72.9088 52.4288-29.4912 99.9424-126.1568 107.3152-143.36-26.2144-24.576-99.1232-77.824-116.3264-90.112l-57.344 99.1232c-0.8192 1.6384-2.4576 2.4576-4.096 1.6384-155.648-30.3104-406.3232-74.5472-426.8032-63.8976-0.8192 12.288 7.3728 23.7568 16.384 31.9488 28.672-2.4576 72.0896 4.9152 91.7504 18.0224 8.192 4.9152 11.4688 10.6496 11.4688 16.384 0 4.096-2.4576 7.3728-6.5536 9.8304-14.7456 7.3728-57.344-4.9152-87.6544-25.3952-4.096-2.4576-8.192-5.7344-12.288-9.8304-5.7344 2.4576-10.6496 3.2768-13.9264 5.7344-4.096 1.6384-4.096 4.096-4.096 4.096 0 5.7344 9.8304 17.2032 31.9488 31.1296 12.288-0.8192 27.0336 0.8192 40.1408 4.096 20.48 4.9152 40.96 14.7456 38.5024 26.2144-0.8192 3.2768-3.2768 7.3728-13.9264 6.5536-13.1072-1.6384-42.5984-13.1072-66.3552-27.8528-15.5648 1.6384-27.8528 7.3728-31.1296 18.0224z m47.5136-18.0224c28.672 15.5648 53.248 22.1184 57.344 19.6608 0-2.4576-9.8304-10.6496-32.768-16.384-8.192-1.6384-16.384-3.2768-24.576-3.2768z m-15.5648-49.152c1.6384 1.6384 3.2768 2.4576 4.9152 3.2768 29.4912 19.6608 68.8128 30.3104 79.4624 25.3952 1.6384-0.8192 1.6384-1.6384 1.6384-2.4576 0-2.4576-2.4576-5.7344-7.3728-9.0112-17.2032-10.6496-53.248-17.2032-78.6432-17.2032z" fill="#126DFF" p-id="6051"></path><path d="M1493.4016 233.562112c0 4.096 3.2768 8.192 8.192 8.192 4.096 0 8.192-3.2768 8.192-8.192 0-4.096-3.2768-8.192-8.192-8.192-4.096 0-7.3728 3.2768-8.192 8.192" fill="#1E232A" p-id="6052"></path><path d="M983.8592 378.560512c-1.6384-8.192 40.1408-40.1408 40.1408-40.1408l41.7792 5.7344 161.3824-161.3824v-43.4176l40.1408-40.1408 21.2992 21.2992s-22.9376 22.9376-2.4576 43.4176 37.6832-9.0112 37.6832-9.0112l28.672 28.672-36.0448 36.0448-47.5136 3.2768-161.3824 161.3824v39.3216l-38.5024 40.1408-24.576-24.576s30.3104-28.672 11.4688-47.5136c-18.8416-18.8416-49.9712 9.0112-49.9712 9.0112l-22.1184-22.1184z" fill="#FFC60A" p-id="6053"></path><path d="M1463.0912 195.878912s27.8528-9.0112 59.8016-7.3728c31.9488 0.8192 58.9824 63.0784 57.344 48.3328-3.2768-31.1296 19.6608-49.152 27.0336-58.9824 0 0 15.5648-59.8016-28.672-83.5584-27.0336-14.7456-120.4224 27.8528-120.4224 27.8528s-86.8352 78.6432 4.9152 73.728" fill="#1E232A" p-id="6054"></path><path d="M1580.2368 243.392512c-3.2768 0-4.9152-3.2768-9.8304-10.6496-9.8304-13.9264-27.0336-40.1408-46.6944-40.1408-31.1296-0.8192-58.1632 7.3728-58.9824 7.3728h-0.8192c-25.3952 1.6384-40.1408-3.2768-45.056-14.7456-9.8304-22.9376 32.768-62.2592 37.6832-66.3552l0.8192-0.8192c9.8304-4.096 95.8464-42.5984 123.6992-27.0336 46.6944 24.576 31.1296 87.6544 30.3104 88.4736 0 0.8192 0 0.8192-0.8192 1.6384-1.6384 2.4576-3.2768 4.9152-5.7344 7.3728-9.0112 10.6496-22.9376 26.2144-20.48 49.152 0 3.2768-0.8192 5.7344-3.2768 6.5536 0-0.8192 0-0.8192-0.8192-0.8192z m-62.2592-59.8016h5.7344c22.9376 0.8192 42.5984 28.672 52.4288 43.4176 1.6384-21.2992 13.9264-36.0448 22.9376-45.8752 1.6384-2.4576 4.096-4.096 4.9152-5.7344 1.6384-6.5536 11.4688-58.1632-27.0336-78.6432-20.48-10.6496-90.112 15.5648-115.5072 27.0336-16.384 15.5648-40.96 43.4176-35.2256 57.344 3.2768 7.3728 15.5648 10.6496 36.864 9.8304 3.2768-0.8192 27.0336-7.3728 54.8864-7.3728z m-54.8864 12.288z" fill="#1E232A" p-id="6055"></path><path d="M1633.4848 184.410112c16.384-51.6096-12.288-106.496-63.0784-122.88-51.6096-16.384-106.496 12.288-122.88 63.0784l185.9584 59.8016z" fill="#FFC60A" p-id="6056"></path><path d="M1111.6544 250.765312s-25.3952-27.8528-50.7904 0-4.096 112.2304 25.3952 98.304c29.4912-13.9264 11.4688-61.44 11.4688-61.44" fill="#FFEACF" p-id="6057"></path><path d="M1080.5248 354.803712c-6.5536 0-13.1072-4.096-18.8416-11.4688-15.5648-21.2992-22.9376-72.9088-2.4576-95.0272 8.192-9.0112 17.2032-13.9264 27.0336-13.9264 16.384 0 28.672 13.1072 29.4912 13.9264 1.6384 1.6384 1.6384 4.096 0 5.7344-1.6384 1.6384-4.096 1.6384-5.7344 0 0 0-9.8304-11.4688-22.9376-11.4688-7.3728 0-14.7456 4.096-21.2992 11.4688-16.384 18.0224-11.4688 64.7168 3.2768 85.1968 5.7344 7.3728 11.4688 9.8304 17.2032 7.3728 25.3952-12.288 9.8304-56.5248 9.8304-56.5248-2.4576-3.2768-0.8192-5.7344 0.8192-6.5536 2.4576-0.8192 4.096 0 4.9152 2.4576 0.8192 2.4576 18.8416 51.6096-13.9264 67.1744-2.4576 0.8192-4.9152 1.6384-7.3728 1.6384z" fill="#3370FF" p-id="6058"></path><path d="M1150.1568 208.986112s-25.3952-27.8528-50.7904 0-4.096 112.2304 25.3952 99.1232c29.4912-13.9264 11.4688-61.44 11.4688-61.44" fill="#FFEACF" p-id="6059"></path><path d="M1118.208 313.024512c-6.5536 0-13.1072-4.096-18.8416-11.4688-16.384-21.2992-23.7568-72.0896-3.2768-95.0272 8.192-9.0112 17.2032-13.9264 27.0336-13.9264 16.384 0 28.672 13.1072 29.4912 13.9264 1.6384 1.6384 1.6384 4.096 0 5.7344-1.6384 1.6384-4.096 1.6384-5.7344 0 0 0-9.8304-11.4688-22.9376-11.4688-7.3728 0-14.7456 4.096-21.2992 11.4688-16.384 18.0224-11.4688 64.7168 3.2768 85.1968 5.7344 7.3728 11.4688 9.8304 17.2032 7.3728 25.3952-13.1072 9.8304-57.344 9.8304-57.344-0.8192-2.4576 0-4.9152 2.4576-4.9152 2.4576-0.8192 4.096 0 4.9152 2.4576 0.8192 2.4576 18.8416 51.6096-13.9264 67.1744-2.4576 0.8192-5.7344 0.8192-8.192 0.8192z" fill="#3370FF" p-id="6060"></path><path d="M1191.936 186.867712s-25.3952-27.8528-50.7904 0-4.096 112.2304 25.3952 98.304c29.4912-13.1072 12.288-61.44 12.288-61.44" fill="#FFEACF" p-id="6061"></path><path d="M1159.9872 290.906112c-6.5536 0-13.1072-4.096-18.8416-11.4688-15.5648-21.2992-22.9376-72.0896-2.4576-95.0272 8.192-9.0112 17.2032-13.9264 27.0336-13.9264 16.384 0 28.672 13.1072 29.4912 13.9264 1.6384 1.6384 1.6384 4.096 0 5.7344-1.6384 1.6384-4.096 1.6384-5.7344 0 0 0-9.8304-11.4688-22.9376-11.4688-7.3728 0-14.7456 4.096-21.2992 11.4688-16.384 18.0224-11.4688 64.7168 3.2768 85.1968 5.7344 7.3728 11.4688 9.8304 17.2032 7.3728 25.3952-12.288 9.8304-56.5248 9.8304-56.5248-0.8192-2.4576 0-4.096 2.4576-4.9152 2.4576-0.8192 4.096 0 4.9152 2.4576 0.8192 2.4576 18.8416 51.6096-13.9264 67.1744h-9.0112z" fill="#126DFF" p-id="6062"></path><path d="M1116.5696 636.608512s-48.3328-86.016-12.288-81.92c25.3952 3.2768 88.4736 95.8464 88.4736 95.8464l-76.1856-13.9264z" fill="#FFEACF" p-id="6063"></path><path d="M1191.936 654.630912l-77.0048-13.9264c-0.8192 0-2.4576-0.8192-2.4576-1.6384-5.7344-10.6496-35.2256-64.7168-23.7568-81.92 2.4576-3.2768 6.5536-6.5536 14.7456-5.7344 26.2144 3.2768 84.3776 87.6544 90.9312 97.4848 0.8192 1.6384 0.8192 3.2768 0 4.9152 0.8192 0-0.8192 0.8192-2.4576 0.8192z m-72.9088-22.1184l63.8976 11.4688c-25.3952-36.0448-63.8976-83.5584-79.4624-86.016-5.7344-0.8192-6.5536 1.6384-7.3728 2.4576-6.5536 10.6496 9.8304 49.152 22.9376 72.0896z" fill="#126DFF" p-id="6064"></path><path d="M1454.8992 583.360512s118.784-276.0704 212.992-217.088c94.208 58.9824-50.7904 343.2448-50.7904 343.2448l-162.2016-126.1568z" fill="#3370FF" p-id="6065"></path><path d="M1617.1008 713.613312c-0.8192 0-1.6384 0-2.4576-0.8192l-162.2016-126.1568c-1.6384-0.8192-1.6384-3.2768-1.6384-4.9152 3.2768-8.192 86.8352-199.0656 170.3936-225.28 17.2032-5.7344 33.5872-3.2768 48.3328 5.7344 95.8464 59.8016-43.4176 336.6912-49.152 348.9792l-2.4576 2.4576h-0.8192z m-157.2864-131.072l155.648 121.2416c18.0224-36.0448 133.5296-280.9856 49.9712-333.4144-13.1072-8.192-27.0336-9.8304-41.7792-4.9152-74.5472 22.9376-153.1904 192.512-163.84 217.088z" fill="#FFFFFF" p-id="6066"></path><path d="M668.4672 494.886912h-4.096c-2.4576 0-4.096-1.6384-4.096-4.096s1.6384-4.096 4.096-4.096c22.1184 0.8192 79.4624-3.2768 82.7392-29.4912 0.8192-9.8304-9.8304-18.8416-17.2032-22.9376-2.4576-1.6384-4.9152-2.4576-7.3728-4.096-15.5648 4.096-30.3104 5.7344-41.7792 6.5536-24.576 0.8192-38.5024-4.096-39.3216-13.9264-0.8192-4.9152 1.6384-9.0112 5.7344-11.4688 13.9264-9.0112 50.7904-1.6384 76.1856 10.6496 41.7792-11.4688 81.92-34.4064 81.92-63.0784 0-9.8304-8.192-19.6608-22.9376-27.8528-73.728 26.2144-174.4896 34.4064-208.0768 18.8416-11.4688-4.9152-13.1072-12.288-13.1072-17.2032 0-31.9488 72.9088-34.4064 95.0272-34.4064 41.7792 0 94.208 7.3728 126.976 23.7568 22.9376-8.192 42.5984-18.0224 55.7056-29.4912 15.5648-13.1072 21.2992-27.0336 18.0224-40.96-22.1184-83.5584-208.896-58.1632-210.5344-58.1632-2.4576 0-4.096-1.6384-4.9152-3.2768 0-2.4576 1.6384-4.096 3.2768-4.9152 8.192-0.8192 195.7888-26.2144 220.3648 63.8976 4.9152 17.2032-2.4576 34.4064-20.48 49.152-13.1072 11.4688-31.1296 20.48-51.6096 28.672 13.1072 8.192 21.2992 18.8416 21.2992 31.1296 0 33.5872-40.1408 56.5248-80.2816 67.9936 14.7456 9.0112 22.1184 19.6608 20.48 31.1296-3.2768 35.2256-68.8128 37.6832-86.016 37.6832z m-2.4576-79.4624c-5.7344 0-10.6496 0.8192-13.9264 2.4576-2.4576 1.6384-2.4576 2.4576-2.4576 4.096 0 3.2768 9.0112 7.3728 31.1296 6.5536 9.0112-0.8192 19.6608-1.6384 30.3104-4.096-15.5648-5.7344-32.768-9.0112-45.056-9.0112z m-9.8304-108.9536c-50.7904 0-86.8352 10.6496-86.8352 26.2144 0 3.2768 3.2768 6.5536 9.0112 9.8304 30.3104 13.9264 122.88 7.3728 194.1504-16.384-4.096-1.6384-9.0112-3.2768-14.7456-5.7344-27.8528-8.192-65.536-13.9264-101.5808-13.9264z" fill="#3370FF" p-id="6067"></path><path d="M1393.4592 109.862912l238.3872 77.824 7.3728-22.1184-238.3872-78.6432z" fill="#FFC60A" p-id="6068"></path></svg>