<?xml version="1.0" standalone="no"?><!DOCTYPE svg PUBLIC "-//W3C//DTD SVG 1.1//EN" "http://www.w3.org/Graphics/SVG/1.1/DTD/svg11.dtd"><svg t="1606492160230" class="icon" viewBox="0 0 1024 1024" version="1.1" xmlns="http://www.w3.org/2000/svg" p-id="42939" xmlns:xlink="http://www.w3.org/1999/xlink" width="334" height="334"><defs><style type="text/css"></style></defs><path d="M265.317834 833.999912C150.669436 782.483094 93.348066 702.695956 93.348066 594.644155c0-162.086188 51.539448-209.043094 117.392265-237.884818 65.852818-28.853039 171.471912 18.041635 266.387094 12.010785 94.92084-6.030851 229.183646-114.523934 311.799514-67.357702 82.621525 47.166232 13.821171 107.361591 43.268243 203.889149 29.441414 96.521901 93.167028 58.068155 98.292685 138.720884 3.411448 53.762829-51.93547 117.09242-166.040751 189.977459H265.317834z" fill="#F0F4FF" p-id="42940"></path><path d="M167.132641 553.327735h21.113635v280.672177h-21.113635z" fill="#FCC493" p-id="42941"></path><path d="M167.132641 558.261039h21.113635v7.043536h-21.113635v-7.043536z m0 93.178342h21.113635v7.037879h-21.113635v-7.037879z m0 93.178343h21.113635v7.037878h-21.113635v-7.037878z" fill="#FCA944" p-id="42942"></path><path d="M103.955801 496.673945h294.312309v61.587094H103.955801V496.673945z m0 93.178342h294.312309v61.587094H103.955801v-61.587094z m0 93.178343h294.312309v61.587094H103.955801v-61.587094z" fill="#FDFEFF" p-id="42943"></path><path d="M182.849061 496.673945h40.479116L158.335293 558.261039h-40.473459L182.849061 496.673945z m0 93.178342h40.479116l-64.992884 61.587094h-40.473459l64.992884-61.587094z m0 93.178343h40.479116l-64.992884 61.587094h-40.473459l64.992884-61.587094z m86.672265-186.356685h40.467801L244.996243 558.261039h-40.473458L269.521326 496.673945z m0 93.178342h40.467801l-64.992884 61.587094h-40.473458l64.998541-61.587094z m0 93.178343h40.467801l-64.992884 61.587094h-40.473458l64.998541-61.587094z m88.426077-186.356685h40.467801L333.42232 558.261039h-40.473458L357.947403 496.673945z m0 93.178342h40.467801l-64.992884 61.587094h-40.473458l64.992884-61.587094z m0 93.178343h40.467801l-64.992884 61.587094h-40.473458l64.992884-61.587094z" fill="#FCD4A1" p-id="42944"></path><path d="M732.018564 833.999912c-0.69021-5.555624-0.339448-8.88221 1.052287-9.968442 2.081945-1.629348 5.861127-0.786387 7.467845-1.629348 1.612376-0.848619 0-2.659006 2.936221-3.841415 2.930564-1.176751 4.373215-0.016972 7.694144-1.629348 2.212066-1.074917 18.103867-78.531182 47.686718-232.368795h18.211359l45.582144 232.368795c4.83147-0.02263 7.909127 0.260243 9.232972 0.837304 1.98011 0.871249-0.588376 3.292641 3.258696 4.633459 3.847072 1.33516 5.714033-0.763757 7.207602 1.629348 0.995713 1.595403 1.323845 4.921989 0.973083 9.968442H732.018564z" fill="#FF7E00" p-id="42945"></path><path d="M774.347669 709.27558h67.340729l5.391558 28.389127h-78.310542zM798.855779 584.562564h18.211359l3.264354 16.813966h-24.717437z" fill="#FDFEFF" p-id="42946"></path><path d="M794.940818 833.999912c10.494586-3.224751 19.116552-8.916155 25.854585-17.068553 6.749348-8.152398 8.039249-72.624796 3.886674-193.411536 9.843978 48.41653 16.497149 81.733304 19.965172 99.955978 11.767514 61.864309 16.949746 93.048221 18.002033 93.455558 2.285613 0.876906 7.117083-0.084862 9.232972 0.837304 2.11589 0.927823 1.210696 3.733923 3.258696 4.633459 2.048 0.899536 6.053481-0.214983 7.23589 1.425679 0.792044 1.09189 1.103204 4.480707 0.944795 10.172111h-88.380817z" fill="#E45502" opacity=".202" p-id="42947"></path><path d="M505.063956 271.772994c0-31.172597 8.271204-54.057017 24.824928-68.658917 24.836243-21.894365 79.368486-23.031514 100.849856 6.81158 14.324685 19.897282 15.541039 45.751867 3.654719 77.563757l-129.329503-15.71642z" fill="#FEA501" opacity=".804" p-id="42948"></path><path d="M573.77379 187.05821l-6.517392 45.938563c-13.674077 0.905193-25.498166 4.695691-35.472265 11.371492-9.985414 6.675801-18.890254 15.818254-26.720177 27.404729l129.329503 15.710763c0-12.486011-3.875359-23.21821-11.626078-32.207912a63.629436 63.629436 0 0 0-28.332552-19.105237l6.692773-46.14789a64.478055 64.478055 0 0 0-13.419492-2.964508 67.193635 67.193635 0 0 0-13.93432 0z" fill="#FFD300" p-id="42949"></path><path d="M503.038586 298.578033c-22.50537-7.071823-32.960354-13.142276-31.370608-18.217016 2.393105-7.626254 43.522829-13.37989 98.134276-6.506078 54.60579 6.873812 85.540773 19.676641 86.445967 27.212376 0.611006 5.023823-8.373039 8.356066-26.93516 10.008044l1.866961-17.956773-124.888398-12.763227-3.253038 18.217017z" fill="#FE9400" opacity=".9" p-id="42950"></path><path d="M506.291624 280.355359l-5.170917 28.010077c-6.862497-3.479337-12.559558-4.186519-17.09684-2.127204-6.805923 3.09463-11.676994 24.836243-7.309436 32.162652 2.907934 4.882387 8.288177 7.824265 16.146387 8.825635l10.590762 58.803625 58.169989 96.92358 42.826961-84.516774 21.413481-57.773967c10.353149 1.833017 17.164729-0.152751 20.417768-5.962961 4.882387-8.712486 3.564199-27.676287-2.958851-31.953326-4.350586-2.851359-9.470586-3.145547-15.371315-0.876906l3.236067-28.751204c-7.948729-8.197657-28.366497-13.804199-61.258962-16.836597-32.892464-3.032398-54.102276-1.674608-63.635094 4.07337z" fill="#FFA09C" p-id="42951"></path><path d="M503.45158 406.035801c22.267757 32.156994 34.238939 48.823867 35.90789 50.000619 2.664663 1.872619-6.081768-11.937238-26.239293-41.418254 7.382983 5.872442 20.553547 10.381436 39.500375 13.521326 13.453436 2.223381 28.598453 1.38042 45.429393-2.523227l-40.111381 71.193459 3.683005 6.144 42.826961-84.516774-100.99695-12.406806zM498.523934 325.665945a8.57105 8.57105 0 0 0-2.868332-3.76221c-1.33516-1.018343-3.196464-1.753812-5.589569-2.234696 2.523227 1.323845 4.260066 2.460994 5.204862 3.411447 0.939138 0.944796 1.866961 2.489282 2.789127 4.633459l0.463912-2.048zM626.212773 340.92411c-0.084862-0.537459-0.084862-0.905193 0-1.097546 0.678895-1.499227 2.121547-2.67032 3.462365-3.411448 1.103204-0.605348 2.987138-1.040972 5.657459-1.301215-2.489282 0.797702-4.254409 1.527514-5.295382 2.206408-1.04663 0.673238-2.319558 1.872619-3.824442 3.603801zM557.559514 332.579359c2.659006 3.168177 5.261436 4.865414 7.807293 5.07474 2.534541 0.214983 5.233149-1.040972 8.090165-3.767867-2.014055 3.711293-4.707006 5.487735-8.090165 5.340641-3.388818-0.152751-5.991249-2.364818-7.807293-6.647514zM567.256398 300.128177a165.214762 165.214762 0 0 0-3.072 12.650077 177.813923 177.813923 0 0 0-2.048 13.181879c1.601061-5.334983 2.721238-9.640309 3.371845-12.915978 0.64495-3.270011 1.227669-7.580994 1.748155-12.915978z" fill="#FE6560" p-id="42952"></path><path d="M498.060022 327.713945c-10.901923 31.727028-11.626077 55.052729-2.172464 69.982762 14.177591 22.403536 87.503912 40.563978 113.273635 16.570696 17.176044-15.999293 22.83916-40.445171 16.989348-73.343293-4.593856 10.477613-10.579448 16.010608-17.956773 16.604641-11.065989 0.882564-24.366674-12.401149-46.051713-15.348685-21.690696-2.941878-41.587978 8.373039-52.076906 2.653348-6.986961-3.818785-10.992442-9.521503-12.005127-17.119469z" fill="#003054" p-id="42953"></path><path d="M559.929989 376.045613c5.255779 0.848619 9.012331 0.95611 11.269657 0.31116 2.262983-0.639293 5.170917-2.625061 8.723802-5.968618-2.319558 4.07337-5.227492 6.506077-8.723802 7.303779-3.496309 0.797702-7.252862 0.248928-11.269657-1.646321z" fill="#FFA09C" p-id="42954"></path><path d="M604.075138 417.758055c-8.825635 17.283536-15.631558 30.041105-20.406453 38.278365-4.769238 8.23726-11.948552 19.733215-21.532287 34.499182l-15.263823 136.406984 102.049237-179.57905c-25.741436-7.054851-39.585238-12.446409-41.537061-16.169017-1.957481-3.722608-3.060685-8.203315-3.309613-13.436464z" fill="#4F94F9" p-id="42955"></path><path d="M624.413702 439.358232c-9.165083 36.501923-20.683669 68.726807-34.567072 96.680309-13.894718 27.947845-28.213746 51.827978-42.974055 71.623426v19.280619l102.049237-179.57905c-6.347669-2.262983-11.105591-3.903646-14.273768-4.938961a230.009635 230.009635 0 0 0-10.24-3.066343z" fill="#1765CF" fill-opacity=".401" p-id="42956"></path><path d="M546.872575 626.942586l15.263823-136.406984 21.532287-34.499182-16.531094 36.377458z" fill="#1765CF" fill-opacity=".401" p-id="42957"></path><path d="M575.612464 469.173039c2.721238-0.752442 5.295381-0.248928 7.722431 1.510541 3.632088 2.636376 3.773525 26.341127 7.224575 33.531757 2.296928 4.791867 6.805923 7.586652 13.515668 8.384354-6.155315-27.636685-11.558188-43.449282-16.214276-47.420818s-8.740773-2.642033-12.248398 3.988508z" fill="#1765CF" fill-opacity=".401" p-id="42958"></path><path d="M604.075138 417.758055l-26.703204 47.890387c2.721238-0.746785 5.295381-0.243271 7.722431 1.516199 3.632088 2.636376 3.077657 28.598453 6.528707 35.789083 2.296928 4.791867 6.449503 8.005304 12.452066 9.645967l20.338564-73.241459c-8.984044-2.325215-14.573613-4.978564-16.768708-7.937414-1.538829-2.081945-2.517569-6.630541-2.941878-13.662763h-0.627978zM562.136398 490.535602c1.731182-20.610122 1.199381-31.512044-1.584089-32.705768-4.186519-1.793414-5.702718-0.746785-12.248397-1.793414-4.367558-0.695867-7.892155-1.799072-10.585105-3.303956l-48.416531 32.202254 57.570299 142.007868 15.263823-136.406984z" fill="#4F94F9" p-id="42959"></path><path d="M546.872575 626.942586l-57.570299-142.00221 19.574807-12.966895 39.460773 137.617679zM563.13211 465.178873c-0.661923-4.446762-1.527514-6.902099-2.585458-7.354696-4.175204-1.787757-5.697061-0.741127-12.24274-1.787757-4.367558-0.695867-7.892155-1.799072-10.585105-3.303956L531.518232 459.611934l31.613878 5.566939z" fill="#1765CF" fill-opacity=".401" p-id="42960"></path><path d="M551.743646 501.748685m-5.657458 0a5.657459 5.657459 0 1 0 11.314917 0 5.657459 5.657459 0 1 0-11.314917 0Z" fill="#347AD0" p-id="42961"></path><path d="M549.746564 538.31284m-5.657459 0a5.657459 5.657459 0 1 0 11.314917 0 5.657459 5.657459 0 1 0-11.314917 0Z" fill="#347AD0" p-id="42962"></path><path d="M552.620552 500.871779m-5.657458 0a5.657459 5.657459 0 1 0 11.314917 0 5.657459 5.657459 0 1 0-11.314917 0Z" fill="#AED1FE" p-id="42963"></path><path d="M550.629127 537.435934m-5.657458 0a5.657459 5.657459 0 1 0 11.314917 0 5.657459 5.657459 0 1 0-11.314917 0Z" fill="#AED1FE" p-id="42964"></path><path d="M365.070144 833.999912l19.34285-89.382188 47.036111-123.97189-23.925392-181.287602c13.843801-2.964508 27.285923-5.566939 40.326364-7.807293 13.040442-2.234696 26.346785-4.07337 39.919028-5.499049l59.199646 185.807911c21.181525-31.161282 38.640442-60.019978 52.376752-86.570431a606.134453 606.134453 0 0 0 35.302541-82.864795l35.381746 11.937237 34.657591 13.085702-48.422188 215.583116 36.394431 150.969282H365.075801z" fill="#FFD300" p-id="42965"></path><path d="M422.725304 436.212685l39.036464 193.134321 42.572376 5.578254-42.753415-205.53547a605.630939 605.630939 0 0 0-20.45737 3.36053 1954.369061 1954.369061 0 0 0-18.392398 3.462365z" fill="#FE8E00" opacity=".2" p-id="42966"></path><path d="M659.557834 450.87116l-54.057016 188.178387 45.474652-1.301216 43.58506-174.125259a11103.215028 11103.215028 0 0 1-20.564861-7.750718c-4.129945-1.561459-8.938785-3.224751-14.437835-5.001194zM380.186873 763.666387l32.841547 5.974276-14.613216 64.359249h47.613172l12.061701-58.571669c26.420331 2.121547 47.092685 3.275669 62.022719 3.468022 14.930033 0.192354 37.565525-0.396022 67.900817-1.776442l12.073017 56.880089h47.539624l-14.222851-62.803448c10.070276-1.685923 17.549436-3.055028 22.426166-4.101657 4.882387-1.04663 11.371492-2.681635 19.47863-4.899359l-8.825635-35.347802-282.06957 17.770078-4.226121 19.048663z" fill="#FE8E00" opacity=".204" p-id="42967"></path><path d="M377.81074 783.399602c23.427536-13.747624 40.184928-20.745901 50.260862-20.994829 123.309967-3.111602 190.639381-3.507624 201.993901-1.182408 12.746254 2.613746 28.790807 10.002387 48.122342 22.177237l7.037879-219.84884c-9.278232 51.91284-47.222807 76.788685-113.816752 74.621879-66.599602-2.166807-115.417812-19.229702-146.465944-51.188685l-47.132288 196.415646z" fill="#E55501" opacity=".1" p-id="42968"></path><path d="M407.523713 439.358232c-6.585282 1.866961-14.743337 4.367558-24.462851 7.507448-19.082608 6.16663-53.451669 98.060729-59.595669 192.183867-4.373215 67.074829 16.610298 89.438762 33.899492 99.526011 17.294851 10.092906 90.434475 20.932597 161.45821 20.932597 47.347271 0 92.318409-7.722431 134.919072-23.167293-44.976796-14.058785-87.486939-28.988818-127.524774-44.801414-40.037834-15.806939-69.615028-32.089105-88.737237-48.835183l-6.030851-22.058431-23.925392-181.287602z" fill="#4F94F9" p-id="42969"></path><path d="M615.588066 747.949967c-31.070762 7.705459-63.323934 11.55253-96.765171 11.55253-71.023735 0-144.163359-10.834033-161.45821-20.926939-17.170387-10.019359-37.989834-32.14568-33.984354-98.162564 4.848442 50.023249 29.814807 82.910055 74.887779 98.654763 46.153547 16.118099 118.597304 15.76168 217.319956-1.06926v9.95147z" fill="#3880E8" p-id="42970"></path><path d="M616.798762 724.414939a2038.948066 2038.948066 0 0 0 36.943205 11.925923 380.588552 380.588552 0 0 1-39.732332 11.993812l2.789127-23.919735z" fill="#FFA09C" p-id="42971"></path><path d="M616.798762 724.414939a2038.948066 2038.948066 0 0 0 36.943205 11.925923l-2.585459 0.927823-33.271514-8.916155-2.828729 19.727558-1.04663 0.260243 2.789127-23.925392z" fill="#FE6560" p-id="42972"></path><path d="M407.523713 439.358232l-9.187713 2.675978 18.596066 127.745414 14.884774 52.127824z" fill="#1765CF" fill-opacity=".401" p-id="42973"></path><path d="M437.479956 642.704265c6.805923-8.033591 14.794254-12.915978 23.964994-14.635845 9.165083-1.725525 32.530387 2.432707 70.073282 12.452066l-5.301039 51.018962c-17.368398-6.019536-34.974409-13.985238-52.840663-23.902763-17.860597-9.911867-29.826122-18.217017-35.896574-24.93242z" fill="#FFA09C" p-id="42974"></path><path d="M524.418122 689.666829l7.10011-49.146343-5.301039 51.018962c-6.907757-1.963138-12.299315-3.76221-16.169016-5.397216-3.869702-1.635006-9.199028-4.367558-15.982321-8.192l30.352266 11.710939z" fill="#FE6560" p-id="42975"></path><path d="M526.217193 691.539448l5.301039-54.752884c30.448442 1.719867 53.327204 2.472309 68.63063 2.262983 15.309083-0.209326 37.639072-1.584088 66.995624-4.129945l37.542895-167.472088c6.885127 2.602431 13.159249 6.636199 18.828022 12.112619 3.496309 3.377503 23.648177 34.623646 32.089105 78.700906 8.520133 44.478939 19.772818 153.073856 7.298122 167.166585-10.766144 12.152221-47.584884 16.044552-110.467536 11.676995-32.089105-10.715227-55.69768-18.805392-70.820066-24.26484-15.122387-5.459448-33.588331-12.559558-55.397835-21.300331z" fill="#4F94F9" p-id="42976"></path><path d="M527.410917 679.20053l0.339448-0.492199c38.261392 29.435757 95.893923 47.579227 172.908906 54.436067 74.752 6.653171 65.739669-54.424751 67.663204-54.950895 0.594033 23.444508-0.752442 41.96137-5.425503 47.239779-10.760486 12.146564-47.579227 16.038895-110.461878 11.671337-32.089105-10.715227-55.69768-18.805392-70.820066-24.26484-15.122387-5.459448-33.588331-12.559558-55.397835-21.300331l1.193724-12.338918z" fill="#3880E8" p-id="42977"></path><path d="M704.687381 467.447514l-37.542895 167.477746 45.627404-163.523183z" fill="#1765CF" fill-opacity=".401" p-id="42978"></path><path d="M132.820155 829.162785h784.825281v5.71969H132.820155z" fill="#FE7700" p-id="42979"></path><path d="M480.165481 426.96274l9.346121 65.298387c11.824088-3.937591 21.300331-8.344751 28.428729-13.215823 7.128398-4.876729 13.719337-13.64579 19.778476-26.307182l-57.553326-25.775382z" fill="#000000" opacity=".203" p-id="42980"></path><path d="M480.165481 426.96274l10.228685 59.137415c11.824088-3.937591 21.300331-8.339094 28.428729-13.215824 7.128398-4.871072 13.425149-11.592133 18.895912-20.151867l-31.891094-45.446365-3.337901-2.444022c-0.305503 7.083138-2.393105 12.389834-6.279779 15.920089-3.875359 3.530254-9.221657 5.595227-16.044552 6.200574z" fill="#4F94F9" p-id="42981"></path><path d="M841.976928 335.905945c43.732155 0 75.662851-26.00168 75.662851-60.246276 0-34.244597-40.733702-72.568221-84.465856-72.568221-43.732155 0-79.18179 21.509657-79.18179 62.005745 0 15.71642 6.09874 28.592796 16.802652 40.054807l-11.66568 17.894541 24.383646-5.923359c16.287823 11.778829 37.435403 18.782762 58.464177 18.782763z" fill="#A5D1FE" p-id="42982"></path><path d="M807.732331 250.653702h5.646144v24.706121h5.600884v4.910674h-5.600884v8.078851h-5.861127V280.270497h-18.211359v-5.861127l18.426342-23.755668z m-0.373392 7.81295l-13.034784 16.893171h13.193193v-16.893171h-0.158409z m28.457017-8.54842c4.38453 0 7.81295 1.793414 10.296574 5.487735 2.319558 3.484994 3.479337 8.180685 3.479337 14.092729 0 5.917702-1.159779 10.613392-3.479337 14.098387-2.483624 3.643403-5.912044 5.487735-10.296574 5.487735-4.435448 0-7.863867-1.844331-10.296575-5.487735-2.319558-3.484994-3.479337-8.180685-3.479337-14.098387 0-5.912044 1.159779-10.607735 3.479337-14.092729 2.432707-3.69432 5.861127-5.487735 10.296575-5.487735z m0 5.221834c-3.009768 0-5.12 1.640663-6.336354 5.018166-0.842961 2.268641-1.267271 5.385901-1.267271 9.340464 0 3.903646 0.424309 7.020906 1.267271 9.346122 1.216354 3.326586 3.326586 5.018166 6.336354 5.018165 2.958851 0 5.069083-1.697238 6.336353-5.018165 0.848619-2.319558 1.267271-5.436818 1.267271-9.346122 0-3.960221-0.424309-7.071823-1.267271-9.340464-1.267271-3.377503-3.377503-5.018166-6.336353-5.018166z m35.262939-4.486364h5.651801v24.706121h5.595227v4.910674h-5.600884v8.078851h-5.85547V280.270497h-18.217017v-5.861127l18.426343-23.755668z m-0.367735 7.81295l-13.040442 16.893171h13.198851v-16.893171h-0.158409z" fill="#FFFFFF" p-id="42983"></path></svg>