<?xml version="1.0" standalone="no"?><!DOCTYPE svg PUBLIC "-//W3C//DTD SVG 1.1//EN" "http://www.w3.org/Graphics/SVG/1.1/DTD/svg11.dtd"><svg t="1605795237631" class="icon" viewBox="0 0 1024 1024" version="1.1" xmlns="http://www.w3.org/2000/svg" p-id="21879" xmlns:xlink="http://www.w3.org/1999/xlink" width="200" height="200"><defs><style type="text/css"></style></defs><path d="M459.629563 694.966609c-26.185134-1.755428-50.761125 20.735993-56.246837 52.516553-5.814855 33.718845 12.068567 65.133691 39.972557 70.180546 27.90399 5.010284 55.222837-18.249136 61.074264-51.93141a71.423974 71.423974 0 0 0-2.633142-35.364559 315.501602 315.501602 0 0 0 62.134835-4.754284c146.249091-25.819419 247.076483-147.382805 225.170206-271.615903-13.055995-73.947402-66.66969-132.132524-138.788522-161.682228l-30.354275-171.849081a63.999977 63.999977 0 0 0-126.025098 22.23542l22.783992 129.097097a319.378172 319.378172 0 0 0-52.553124 8.301711l-21.577135-122.514242a63.999977 63.999977 0 0 0-87.259398-48.164554l104.301677 585.508363zM987.428232 514.120959c0 243.858199-570.696939 602.843213-782.482006 487.716397-38.399986-20.845707-70.655975-61.951978-96.292537-116.041101-101.083392-213.028495-100.132536-627.492347 30.171417-800.182571C148.114246 73.36226 174.811379 36.022844 213.284508 18.139422 254.756494-1.097142 308.735903-0.548571 333.71418 0.365714 597.394085 9.874282 987.428232 307.96789 987.428232 514.194102z m-509.805532 403.016999c23.149706 4.315427 45.787412-15.542852 50.578267-44.324555 4.790855-28.781704-10.057139-55.588552-33.170274-59.903979-23.113135-4.315427-45.714269 15.542852-50.541696 44.324556-4.827427 28.781704 10.020568 55.588552 33.170274 59.903978z m177.883365-508.854675c19.675422 0 35.620559 14.189709 35.620558 31.707417s-15.945137 31.707417-35.620558 31.707417-35.620559-14.189709-35.620559-31.707417 15.945137-31.707417 35.620559-31.707417z m-146.870805 0c19.63885 0 35.583987 14.189709 35.583987 31.707417s-15.945137 31.707417-35.583987 31.707417c-19.675422 0-35.620559-14.189709-35.620559-31.707417s15.945137-31.707417 35.620559-31.707417z" fill="#007AFF" p-id="21880"></path></svg>